<svg id="visual" viewBox="0 0 800 450" width="800" height="450" xmlns="http://www.w3.org/2000/svg" xmlns:xlink="http://www.w3.org/1999/xlink" version="1.1"><path d="M0 100L73 100L73 55L145 55L145 96L218 96L218 46L291 46L291 37L364 37L364 46L436 46L436 109L509 109L509 37L582 37L582 55L655 55L655 42L727 42L727 118L800 118L800 60L800 0L800 0L727 0L727 0L655 0L655 0L582 0L582 0L509 0L509 0L436 0L436 0L364 0L364 0L291 0L291 0L218 0L218 0L145 0L145 0L73 0L73 0L0 0Z" fill="#fa7268"></path><path d="M0 204L73 204L73 235L145 235L145 235L218 235L218 208L291 208L291 127L364 127L364 123L436 123L436 231L509 231L509 159L582 159L582 249L655 249L655 127L727 127L727 199L800 199L800 132L800 58L800 116L727 116L727 40L655 40L655 53L582 53L582 35L509 35L509 107L436 107L436 44L364 44L364 35L291 35L291 44L218 44L218 94L145 94L145 53L73 53L73 98L0 98Z" fill="#ea5e66"></path><path d="M0 285L73 285L73 321L145 321L145 267L218 267L218 244L291 244L291 199L364 199L364 186L436 186L436 303L509 303L509 249L582 249L582 303L655 303L655 204L727 204L727 280L800 280L800 213L800 130L800 197L727 197L727 125L655 125L655 247L582 247L582 157L509 157L509 229L436 229L436 121L364 121L364 125L291 125L291 206L218 206L218 233L145 233L145 233L73 233L73 202L0 202Z" fill="#d84a64"></path><path d="M0 339L73 339L73 357L145 357L145 303L218 303L218 321L291 321L291 267L364 267L364 262L436 262L436 370L509 370L509 303L582 303L582 366L655 366L655 267L727 267L727 312L800 312L800 280L800 211L800 278L727 278L727 202L655 202L655 301L582 301L582 247L509 247L509 301L436 301L436 184L364 184L364 197L291 197L291 242L218 242L218 265L145 265L145 319L73 319L73 283L0 283Z" fill="#c53762"></path><path d="M0 451L73 451L73 451L145 451L145 451L218 451L218 451L291 451L291 451L364 451L364 451L436 451L436 451L509 451L509 451L582 451L582 451L655 451L655 451L727 451L727 451L800 451L800 451L800 278L800 310L727 310L727 265L655 265L655 364L582 364L582 301L509 301L509 368L436 368L436 260L364 260L364 265L291 265L291 319L218 319L218 301L145 301L145 355L73 355L73 337L0 337Z" fill="#b0235f"></path></svg>