<svg id="visual" viewBox="0 0 800 450" width="800" height="450" xmlns="http://www.w3.org/2000/svg" xmlns:xlink="http://www.w3.org/1999/xlink" version="1.1"><rect x="0" y="0" width="800" height="450" fill="#002233"></rect><path d="M0 357L19 352.2C38 347.3 76 337.7 114.2 335.8C152.3 334 190.7 340 228.8 338.8C267 337.7 305 329.3 343 327.5C381 325.7 419 330.3 457 329.7C495 329 533 323 571.2 318.2C609.3 313.3 647.7 309.7 685.8 308.2C724 306.7 762 307.3 781 307.7L800 308L800 451L781 451C762 451 724 451 685.8 451C647.7 451 609.3 451 571.2 451C533 451 495 451 457 451C419 451 381 451 343 451C305 451 267 451 228.8 451C190.7 451 152.3 451 114.2 451C76 451 38 451 19 451L0 451Z" fill="#0066FF" stroke-linecap="round" stroke-linejoin="miter"></path></svg>