<svg id="visual" viewBox="0 0 800 450" width="800" height="450" xmlns="http://www.w3.org/2000/svg" xmlns:xlink="http://www.w3.org/1999/xlink" version="1.1"><path d="M0 177L12.2 167.2C24.3 157.3 48.7 137.7 72.8 119.7C97 101.7 121 85.3 145.2 81.7C169.3 78 193.7 87 218 90.7C242.3 94.3 266.7 92.7 291 100.2C315.3 107.7 339.7 124.3 363.8 122.2C388 120 412 99 436.2 99.7C460.3 100.3 484.7 122.7 509 124.2C533.3 125.7 557.7 106.3 582 101.8C606.3 97.3 630.7 107.7 654.8 121.8C679 136 703 154 727.2 154.8C751.3 155.7 775.7 139.3 787.8 131.2L800 123L800 0L787.8 0C775.7 0 751.3 0 727.2 0C703 0 679 0 654.8 0C630.7 0 606.3 0 582 0C557.7 0 533.3 0 509 0C484.7 0 460.3 0 436.2 0C412 0 388 0 363.8 0C339.7 0 315.3 0 291 0C266.7 0 242.3 0 218 0C193.7 0 169.3 0 145.2 0C121 0 97 0 72.8 0C48.7 0 24.3 0 12.2 0L0 0Z" fill="#6198ff"></path><path d="M0 235L12.2 226.8C24.3 218.7 48.7 202.3 72.8 180.7C97 159 121 132 145.2 123.7C169.3 115.3 193.7 125.7 218 131.7C242.3 137.7 266.7 139.3 291 150.7C315.3 162 339.7 183 363.8 180C388 177 412 150 436.2 150C460.3 150 484.7 177 509 187.5C533.3 198 557.7 192 582 190.5C606.3 189 630.7 192 654.8 200.2C679 208.3 703 221.7 727.2 215.7C751.3 209.7 775.7 184.3 787.8 171.7L800 159L800 121L787.8 129.2C775.7 137.3 751.3 153.7 727.2 152.8C703 152 679 134 654.8 119.8C630.7 105.7 606.3 95.3 582 99.8C557.7 104.3 533.3 123.7 509 122.2C484.7 120.7 460.3 98.3 436.2 97.7C412 97 388 118 363.8 120.2C339.7 122.3 315.3 105.7 291 98.2C266.7 90.7 242.3 92.3 218 88.7C193.7 85 169.3 76 145.2 79.7C121 83.3 97 99.7 72.8 117.7C48.7 135.7 24.3 155.3 12.2 165.2L0 175Z" fill="#3c80ff"></path><path d="M0 325L12.2 320.5C24.3 316 48.7 307 72.8 306.3C97 305.7 121 313.3 145.2 313.3C169.3 313.3 193.7 305.7 218 308.7C242.3 311.7 266.7 325.3 291 329.2C315.3 333 339.7 327 363.8 315.7C388 304.3 412 287.7 436.2 283.2C460.3 278.7 484.7 286.3 509 295.3C533.3 304.3 557.7 314.7 582 319.2C606.3 323.7 630.7 322.3 654.8 317.8C679 313.3 703 305.7 727.2 298.8C751.3 292 775.7 286 787.8 283L800 280L800 157L787.8 169.7C775.7 182.3 751.3 207.7 727.2 213.7C703 219.7 679 206.3 654.8 198.2C630.7 190 606.3 187 582 188.5C557.7 190 533.3 196 509 185.5C484.7 175 460.3 148 436.2 148C412 148 388 175 363.8 178C339.7 181 315.3 160 291 148.7C266.7 137.3 242.3 135.7 218 129.7C193.7 123.7 169.3 113.3 145.2 121.7C121 130 97 157 72.8 178.7C48.7 200.3 24.3 216.7 12.2 224.8L0 233Z" fill="#0066ff"></path><path d="M0 352L12.2 350.5C24.3 349 48.7 346 72.8 348.3C97 350.7 121 358.3 145.2 356.2C169.3 354 193.7 342 218 347.2C242.3 352.3 266.7 374.7 291 385.2C315.3 395.7 339.7 394.3 363.8 383.8C388 373.3 412 353.7 436.2 344.7C460.3 335.7 484.7 337.3 509 341.8C533.3 346.3 557.7 353.7 582 361.2C606.3 368.7 630.7 376.3 654.8 375.7C679 375 703 366 727.2 356.2C751.3 346.3 775.7 335.7 787.8 330.3L800 325L800 278L787.8 281C775.7 284 751.3 290 727.2 296.8C703 303.7 679 311.3 654.8 315.8C630.7 320.3 606.3 321.7 582 317.2C557.7 312.7 533.3 302.3 509 293.3C484.7 284.3 460.3 276.7 436.2 281.2C412 285.7 388 302.3 363.8 313.7C339.7 325 315.3 331 291 327.2C266.7 323.3 242.3 309.7 218 306.7C193.7 303.7 169.3 311.3 145.2 311.3C121 311.3 97 303.7 72.8 304.3C48.7 305 24.3 314 12.2 318.5L0 323Z" fill="#0059dd"></path><path d="M0 451L12.2 451C24.3 451 48.7 451 72.8 451C97 451 121 451 145.2 451C169.3 451 193.7 451 218 451C242.3 451 266.7 451 291 451C315.3 451 339.7 451 363.8 451C388 451 412 451 436.2 451C460.3 451 484.7 451 509 451C533.3 451 557.7 451 582 451C606.3 451 630.7 451 654.8 451C679 451 703 451 727.2 451C751.3 451 775.7 451 787.8 451L800 451L800 323L787.8 328.3C775.7 333.7 751.3 344.3 727.2 354.2C703 364 679 373 654.8 373.7C630.7 374.3 606.3 366.7 582 359.2C557.7 351.7 533.3 344.3 509 339.8C484.7 335.3 460.3 333.7 436.2 342.7C412 351.7 388 371.3 363.8 381.8C339.7 392.3 315.3 393.7 291 383.2C266.7 372.7 242.3 350.3 218 345.2C193.7 340 169.3 352 145.2 354.2C121 356.3 97 348.7 72.8 346.3C48.7 344 24.3 347 12.2 348.5L0 350Z" fill="#004cbb"></path></svg>