<svg id="visual" viewBox="0 0 800 450" width="800" height="450" xmlns="http://www.w3.org/2000/svg" xmlns:xlink="http://www.w3.org/1999/xlink" version="1.1"><rect width="800" height="450" fill="#931F1F"></rect><g><g transform="translate(707 299)"><path d="M69.2 -22.3C78.3 5.7 66.6 40.7 41.9 58.9C17.2 77.2 -20.6 78.7 -47.4 60.3C-74.3 42 -90.4 3.7 -80.7 -25.1C-70.9 -53.8 -35.5 -73.1 -2.7 -72.2C30 -71.3 60 -50.3 69.2 -22.3Z" stroke="#F7760E" fill="none" stroke-width="20"></path></g><g transform="translate(180 426)"><path d="M50.6 -17.1C57.4 4.5 49.2 30.4 31.9 42.7C14.7 54.9 -11.6 53.5 -29.3 40.5C-47.1 27.6 -56.3 3.1 -50 -17.8C-43.7 -38.8 -21.8 -56.2 0 -56.2C21.9 -56.2 43.8 -38.8 50.6 -17.1Z" stroke="#F7760E" fill="none" stroke-width="20"></path></g><g transform="translate(16 95)"><path d="M81.4 -25C92.5 7.9 79.7 50 51.5 70.3C23.3 90.7 -20.3 89.3 -48.1 68.6C-75.9 47.8 -87.9 7.7 -77.2 -24.4C-66.6 -56.6 -33.3 -80.7 0.9 -81C35.1 -81.3 70.2 -57.8 81.4 -25Z" stroke="#F7760E" fill="none" stroke-width="20"></path></g></g></svg>