<svg id="visual" viewBox="0 0 800 450" width="800" height="450" xmlns="http://www.w3.org/2000/svg" xmlns:xlink="http://www.w3.org/1999/xlink" version="1.1"><rect x="0" y="0" width="800" height="450" fill="#001220"></rect><defs><linearGradient id="grad1_0" x1="43.8%" y1="0%" x2="100%" y2="100%"><stop offset="14.444444444444446%" stop-color="#001220" stop-opacity="1"></stop><stop offset="85.55555555555554%" stop-color="#001220" stop-opacity="1"></stop></linearGradient></defs><defs><linearGradient id="grad2_0" x1="0%" y1="0%" x2="56.3%" y2="100%"><stop offset="14.444444444444446%" stop-color="#001220" stop-opacity="1"></stop><stop offset="85.55555555555554%" stop-color="#001220" stop-opacity="1"></stop></linearGradient></defs><g transform="translate(800, 0)"><path d="M0 405C-38.1 364.4 -76.3 323.9 -128.6 310.4C-180.9 297 -247.4 310.7 -286.4 286.4C-325.4 262.1 -336.8 199.9 -352 145.8C-367.2 91.7 -386.1 45.9 -405 0L0 0Z" fill="#FBAE3C"></path></g><g transform="translate(0, 450)"><path d="M0 -405C47.1 -389.5 94.2 -373.9 148.5 -358.5C202.8 -343 264.4 -327.6 286.4 -286.4C308.4 -245.1 290.8 -177.9 304 -125.9C317.1 -73.9 361.1 -36.9 405 0L0 0Z" fill="#FBAE3C"></path></g></svg>