<svg id="visual" viewBox="0 0 800 450" width="800" height="450" xmlns="http://www.w3.org/2000/svg" xmlns:xlink="http://www.w3.org/1999/xlink" version="1.1"><rect x="0" y="0" width="800" height="450" fill="#931C1C"></rect><path d="M0 307L114 335L229 311L343 334L457 335L571 335L686 285L800 283L800 451L686 451L571 451L457 451L343 451L229 451L114 451L0 451Z" fill="#f5730a"></path><path d="M0 304L114 317L229 296L343 350L457 349L571 323L686 355L800 353L800 451L686 451L571 451L457 451L343 451L229 451L114 451L0 451Z" fill="#da5b09"></path><path d="M0 378L114 347L229 376L343 382L457 373L571 347L686 380L800 347L800 451L686 451L571 451L457 451L343 451L229 451L114 451L0 451Z" fill="#be4407"></path><path d="M0 371L114 372L229 372L343 383L457 385L571 405L686 406L800 395L800 451L686 451L571 451L457 451L343 451L229 451L114 451L0 451Z" fill="#a32d04"></path><path d="M0 397L114 405L229 425L343 415L457 410L571 422L686 418L800 393L800 451L686 451L571 451L457 451L343 451L229 451L114 451L0 451Z" fill="#871400"></path></svg>