<svg id="visual" viewBox="0 0 800 450" width="800" height="450" xmlns="http://www.w3.org/2000/svg" xmlns:xlink="http://www.w3.org/1999/xlink" version="1.1"><rect x="0" y="0" width="800" height="450" fill="#140021"></rect><path d="M0 215L114 215L114 194L229 194L229 273L343 273L343 200L457 200L457 244L571 244L571 208L686 208L686 214L800 214L800 263L800 451L800 451L686 451L686 451L571 451L571 451L457 451L457 451L343 451L343 451L229 451L229 451L114 451L114 451L0 451Z" fill="#9900ff"></path><path d="M0 306L114 306L114 273L229 273L229 272L343 272L343 329L457 329L457 291L571 291L571 276L686 276L686 343L800 343L800 259L800 451L800 451L686 451L686 451L571 451L571 451L457 451L457 451L343 451L343 451L229 451L229 451L114 451L114 451L0 451Z" fill="#7700c6"></path><path d="M0 389L114 389L114 378L229 378L229 405L343 405L343 337L457 337L457 390L571 390L571 367L686 367L686 392L800 392L800 345L800 451L800 451L686 451L686 451L571 451L571 451L457 451L457 451L343 451L343 451L229 451L229 451L114 451L114 451L0 451Z" fill="#560090"></path></svg>