<svg id="visual" viewBox="0 0 800 450" width="800" height="450" xmlns="http://www.w3.org/2000/svg" xmlns:xlink="http://www.w3.org/1999/xlink" version="1.1"><g stroke-width="1" stroke-linejoin="bevel"><path d="M413.4 264L447.4 206L371.6 185Z" fill="#112e42" stroke="#112e42"></path><path d="M447.4 206L409.4 160L371.6 185Z" fill="#246688" stroke="#246688"></path><path d="M409.4 160L349.6 185L371.6 185Z" fill="#15384f" stroke="#15384f"></path><path d="M371.6 185L349.6 296L413.4 264Z" fill="#1d4e6b" stroke="#1d4e6b"></path><path d="M349.6 185L349.6 296L371.6 185Z" fill="#15384f" stroke="#15384f"></path><path d="M413.4 264L493.3 192L447.4 206Z" fill="#246688" stroke="#246688"></path><path d="M447.4 206L494.3 173L409.4 160Z" fill="#297ea6" stroke="#297ea6"></path><path d="M493.3 192L494.3 173L447.4 206Z" fill="#297ea6" stroke="#297ea6"></path><path d="M494.3 173L478.4 112L409.4 160Z" fill="#0c2435" stroke="#0c2435"></path><path d="M409.4 160L390.6 71L349.6 185Z" fill="#246688" stroke="#246688"></path><path d="M478.4 112L390.6 71L409.4 160Z" fill="#00101c" stroke="#00101c"></path><path d="M349.6 296L407.4 381L413.4 264Z" fill="#205a7a" stroke="#205a7a"></path><path d="M413.4 264L564.3 313L493.3 192Z" fill="#15384f" stroke="#15384f"></path><path d="M231.7 189L237.7 233L349.6 185Z" fill="#246688" stroke="#246688"></path><path d="M349.6 185L237.7 233L349.6 296Z" fill="#277297" stroke="#277297"></path><path d="M349.6 296L394.6 388L407.4 381Z" fill="#246688" stroke="#246688"></path><path d="M265.7 352L394.6 388L349.6 296Z" fill="#277297" stroke="#277297"></path><path d="M237.7 233L246.7 291L349.6 296Z" fill="#1d4e6b" stroke="#1d4e6b"></path><path d="M265.7 57L231.7 189L349.6 185Z" fill="#00101c" stroke="#00101c"></path><path d="M476.4 450L499.3 375L407.4 381Z" fill="#00101c" stroke="#00101c"></path><path d="M407.4 381L499.3 375L413.4 264Z" fill="#15384f" stroke="#15384f"></path><path d="M493.3 192L585.2 144L494.3 173Z" fill="#297ea6" stroke="#297ea6"></path><path d="M499.3 375L564.3 313L413.4 264Z" fill="#1d4e6b" stroke="#1d4e6b"></path><path d="M494.3 173L585.2 144L478.4 112Z" fill="#112e42" stroke="#112e42"></path><path d="M246.7 291L265.7 352L349.6 296Z" fill="#0c2435" stroke="#0c2435"></path><path d="M621.2 207L585.2 144L493.3 192Z" fill="#112e42" stroke="#112e42"></path><path d="M478.4 112L495.3 41L390.6 71Z" fill="#1d4e6b" stroke="#1d4e6b"></path><path d="M585.2 144L495.3 41L478.4 112Z" fill="#205a7a" stroke="#205a7a"></path><path d="M324.6 0L265.7 57L390.6 71Z" fill="#112e42" stroke="#112e42"></path><path d="M390.6 71L265.7 57L349.6 185Z" fill="#277297" stroke="#277297"></path><path d="M564.3 313L621.2 207L493.3 192Z" fill="#205a7a" stroke="#205a7a"></path><path d="M495.3 41L456.4 0L390.6 71Z" fill="#081a28" stroke="#081a28"></path><path d="M456.4 0L324.6 0L390.6 71Z" fill="#205a7a" stroke="#205a7a"></path><path d="M265.7 352L357.6 450L394.6 388Z" fill="#081a28" stroke="#081a28"></path><path d="M394.6 388L476.4 450L407.4 381Z" fill="#277297" stroke="#277297"></path><path d="M357.6 450L476.4 450L394.6 388Z" fill="#15384f" stroke="#15384f"></path><path d="M499.3 375L615.2 337L564.3 313Z" fill="#297ea6" stroke="#297ea6"></path><path d="M609.2 450L615.2 337L499.3 375Z" fill="#0c2435" stroke="#0c2435"></path><path d="M564.3 313L646.2 275L621.2 207Z" fill="#112e42" stroke="#112e42"></path><path d="M624.2 0L513.3 0L495.3 41Z" fill="#15384f" stroke="#15384f"></path><path d="M495.3 41L513.3 0L456.4 0Z" fill="#15384f" stroke="#15384f"></path><path d="M648.2 42L495.3 41L585.2 144Z" fill="#19435d" stroke="#19435d"></path><path d="M615.2 337L646.2 275L564.3 313Z" fill="#112e42" stroke="#112e42"></path><path d="M265.7 57L189.8 88L231.7 189Z" fill="#0c2435" stroke="#0c2435"></path><path d="M231.7 189L152.8 223L237.7 233Z" fill="#277297" stroke="#277297"></path><path d="M237.7 233L152.8 223L246.7 291Z" fill="#081a28" stroke="#081a28"></path><path d="M251.7 0L189.8 88L265.7 57Z" fill="#205a7a" stroke="#205a7a"></path><path d="M145.8 158L152.8 223L231.7 189Z" fill="#15384f" stroke="#15384f"></path><path d="M246.7 291L152.8 321L265.7 352Z" fill="#1d4e6b" stroke="#1d4e6b"></path><path d="M476.4 450L505.3 450L499.3 375Z" fill="#0c2435" stroke="#0c2435"></path><path d="M265.7 352L284.7 450L357.6 450Z" fill="#081a28" stroke="#081a28"></path><path d="M150.8 450L284.7 450L265.7 352Z" fill="#081a28" stroke="#081a28"></path><path d="M189.8 88L145.8 158L231.7 189Z" fill="#19435d" stroke="#19435d"></path><path d="M324.6 0L251.7 0L265.7 57Z" fill="#297ea6" stroke="#297ea6"></path><path d="M141.8 355L76.9 310L111.9 383Z" fill="#297ea6" stroke="#297ea6"></path><path d="M152.8 223L152.8 321L246.7 291Z" fill="#00101c" stroke="#00101c"></path><path d="M97.9 223L152.8 321L152.8 223Z" fill="#277297" stroke="#277297"></path><path d="M152.8 321L141.8 355L265.7 352Z" fill="#112e42" stroke="#112e42"></path><path d="M715.1 182L648.2 42L585.2 144Z" fill="#112e42" stroke="#112e42"></path><path d="M715.1 182L585.2 144L621.2 207Z" fill="#081a28" stroke="#081a28"></path><path d="M145.8 158L97.9 223L152.8 223Z" fill="#19435d" stroke="#19435d"></path><path d="M48.9 186L97.9 223L145.8 158Z" fill="#19435d" stroke="#19435d"></path><path d="M609.2 450L679.1 352L615.2 337Z" fill="#205a7a" stroke="#205a7a"></path><path d="M615.2 337L679.1 352L646.2 275Z" fill="#15384f" stroke="#15384f"></path><path d="M646.2 275L715.1 182L621.2 207Z" fill="#00101c" stroke="#00101c"></path><path d="M505.3 450L609.2 450L499.3 375Z" fill="#1d4e6b" stroke="#1d4e6b"></path><path d="M648.2 42L624.2 0L495.3 41Z" fill="#297ea6" stroke="#297ea6"></path><path d="M743.1 224L715.1 182L646.2 275Z" fill="#19435d" stroke="#19435d"></path><path d="M138.8 0L110.9 80L189.8 88Z" fill="#277297" stroke="#277297"></path><path d="M189.8 88L110.9 80L145.8 158Z" fill="#081a28" stroke="#081a28"></path><path d="M76.9 310L141.8 355L152.8 321Z" fill="#246688" stroke="#246688"></path><path d="M141.8 355L150.8 450L265.7 352Z" fill="#246688" stroke="#246688"></path><path d="M0 268L76.9 310L97.9 223Z" fill="#297ea6" stroke="#297ea6"></path><path d="M97.9 223L76.9 310L152.8 321Z" fill="#1d4e6b" stroke="#1d4e6b"></path><path d="M743.1 317L743.1 224L646.2 275Z" fill="#277297" stroke="#277297"></path><path d="M715.1 182L737.1 61L648.2 42Z" fill="#297ea6" stroke="#297ea6"></path><path d="M111.9 383L150.8 450L141.8 355Z" fill="#0c2435" stroke="#0c2435"></path><path d="M251.7 0L138.8 0L189.8 88Z" fill="#277297" stroke="#277297"></path><path d="M739.1 450L743.1 317L679.1 352Z" fill="#297ea6" stroke="#297ea6"></path><path d="M679.1 352L743.1 317L646.2 275Z" fill="#00101c" stroke="#00101c"></path><path d="M0 145L48.9 186L110.9 80Z" fill="#19435d" stroke="#19435d"></path><path d="M110.9 80L48.9 186L145.8 158Z" fill="#081a28" stroke="#081a28"></path><path d="M800 133L737.1 61L715.1 182Z" fill="#15384f" stroke="#15384f"></path><path d="M648.2 42L719.1 0L624.2 0Z" fill="#297ea6" stroke="#297ea6"></path><path d="M737.1 61L719.1 0L648.2 42Z" fill="#1d4e6b" stroke="#1d4e6b"></path><path d="M138.8 0L78.9 0L110.9 80Z" fill="#15384f" stroke="#15384f"></path><path d="M800 275L800 263L743.1 224Z" fill="#277297" stroke="#277297"></path><path d="M743.1 224L800 133L715.1 182Z" fill="#246688" stroke="#246688"></path><path d="M737.1 61L800 36L719.1 0Z" fill="#00101c" stroke="#00101c"></path><path d="M800 275L743.1 224L743.1 317Z" fill="#1d4e6b" stroke="#1d4e6b"></path><path d="M0 367L76.9 450L111.9 383Z" fill="#277297" stroke="#277297"></path><path d="M111.9 383L76.9 450L150.8 450Z" fill="#205a7a" stroke="#205a7a"></path><path d="M0 367L111.9 383L76.9 310Z" fill="#0c2435" stroke="#0c2435"></path><path d="M800 355L800 275L743.1 317Z" fill="#297ea6" stroke="#297ea6"></path><path d="M48.9 186L0 232L97.9 223Z" fill="#19435d" stroke="#19435d"></path><path d="M0 145L0 232L48.9 186Z" fill="#205a7a" stroke="#205a7a"></path><path d="M0 232L0 268L97.9 223Z" fill="#1d4e6b" stroke="#1d4e6b"></path><path d="M800 263L800 133L743.1 224Z" fill="#15384f" stroke="#15384f"></path><path d="M609.2 450L739.1 450L679.1 352Z" fill="#19435d" stroke="#19435d"></path><path d="M0 45L0 145L110.9 80Z" fill="#1d4e6b" stroke="#1d4e6b"></path><path d="M739.1 450L800 355L743.1 317Z" fill="#081a28" stroke="#081a28"></path><path d="M0 268L0 367L76.9 310Z" fill="#00101c" stroke="#00101c"></path><path d="M800 133L800 36L737.1 61Z" fill="#19435d" stroke="#19435d"></path><path d="M78.9 0L0 45L110.9 80Z" fill="#19435d" stroke="#19435d"></path><path d="M800 36L800 0L719.1 0Z" fill="#112e42" stroke="#112e42"></path><path d="M78.9 0L0 0L0 45Z" fill="#19435d" stroke="#19435d"></path><path d="M739.1 450L800 450L800 355Z" fill="#112e42" stroke="#112e42"></path><path d="M0 367L0 450L76.9 450Z" fill="#277297" stroke="#277297"></path></g></svg>